<?xml version="1.0" encoding="utf-8"?>
<!-- Generator: Adobe Illustrator 27.3.1, SVG Export Plug-In . SVG Version: 6.00 Build 0)  -->
<svg version="1.1" id="Layer_1" xmlns="http://www.w3.org/2000/svg" xmlns:xlink="http://www.w3.org/1999/xlink" x="0px" y="0px"
	 viewBox="0 0 1920 1080" style="enable-background:new 0 0 1920 1080;" xml:space="preserve">
<style type="text/css">
</style>
<path class="st0" d="M-1430.99,1585.26c-52.13,8.71-110.68,13.6-172.54,13.6c-59.78,0-116.46-4.56-167.25-12.73"/>
<rect x="-2014.66" y="1566.89" class="st1" width="336.59" height="87.11"/>
<rect x="-1735.11" y="1418.22" class="st2" width="134.22" height="134.22"/>
<g>
	<path class="st3" d="M792.75,641.77c-134.53-21.64-227.72-68.57-227.72-122.97c0-74.95,176.83-135.7,394.96-135.7
		s394.96,60.76,394.96,135.7c0,53.69-90.75,100.1-222.42,122.1"/>
	<g>
		<circle class="st4" cx="960" cy="641.77" r="55.14"/>
		<g>
			<line class="st5" x1="960" y1="621.47" x2="960" y2="662.06"/>
			<line class="st5" x1="980.3" y1="641.77" x2="939.7" y2="641.77"/>
		</g>
	</g>
</g>
<text transform="matrix(1 0 0 1 734.548 541.9875)" class="st2 st6 st7">3D-TOUR</text>
</svg>
