<?xml version="1.0" encoding="utf-8"?>
<!-- Generator: Adobe Illustrator 27.3.1, SVG Export Plug-In . SVG Version: 6.00 Build 0)  -->
<svg version="1.1" id="Layer_1" xmlns="http://www.w3.org/2000/svg" xmlns:xlink="http://www.w3.org/1999/xlink" x="0px" y="0px"
	 viewBox="0 0 1080 1080" style="enable-background:new 0 0 1080 1080;" xml:space="preserve">
<style type="text/css">
	.st0{fill:#D8B266;}
	.st1{fill:#D8B266;}
</style>
<g>
	<path class="st0" d="M632.14,397.83v622.15c0,33.06-26.7,60.02-60.11,60.02c-16.57,0-31.53-6.72-42.37-17.47
		c-10.93-10.93-17.65-25.89-17.65-42.55v-23.47H396.09c-32.7,0-59.12-23.2-59.12-52.05s26.43-52.05,59.12-52.05h115.92v-42.55H468.2
		c-28.58,0-52.05-23.2-52.05-52.05c0-14.42,5.82-27.41,15.32-36.82c9.41-9.41,22.4-15.23,36.73-15.23h43.81V397.83L632.14,397.83
		L632.14,397.83z"/>
	<path class="st1" d="M573.19,0c-93.61,0-169.85,76.23-169.85,169.85c0,72.29,45.42,134.19,109.29,158.65v29.83h117.53v-28.49
		c65.66-23.47,112.87-86.36,112.87-159.99C743.04,76.23,666.8,0,573.19,0L573.19,0z M573.19,240.35c-38.88,0-70.5-31.62-70.5-70.5
		s31.62-70.5,70.5-70.5s70.5,31.62,70.5,70.5S612.07,240.35,573.19,240.35z"/>
</g>
</svg>
