<?xml version="1.0" encoding="utf-8"?>
<!-- Generator: Adobe Illustrator 28.2.0, SVG Export Plug-In . SVG Version: 6.00 Build 0)  -->
<svg version="1.1" id="Layer_1" xmlns="http://www.w3.org/2000/svg" xmlns:xlink="http://www.w3.org/1999/xlink" x="0px" y="0px"
	 viewBox="0 0 1920 1080" style="enable-background:new 0 0 1920 1080;" xml:space="preserve">
<style type="text/css">
	.st0{fill:none;}
</style>
<image style="overflow:visible;" width="3840" height="2160" xlink:href="top view 1.jpg"  transform="matrix(0.5 0 0 0.5 0 0)">
</image>
<path class="st0" d="M1415.7,779.3l154.7-110.2l13-10.7l-3.3-15.1c0,0,5.9-5.6,1.2-13l0.9-4.4c0,0,4.1,0.6,5-10.4l8.9-6.5
	c0,0,5.9-3.6,1-17.9c0,0,3.7-9.2,1-14.7c0,0,8.9-4.6,4.4-18.4c0,0,11.1-6.2,5.9-19.3c0,0,10.5-3.6,5.3-19.6c0,0,10.4-2.7,5.8-19.4
	c0,0,11.3-6.1,5.5-19.4c0,0,11.6-4.6,5.5-20.7l4.4-3.1l3.4-12.4l-8-24.6l0.4-2.5l-36.4-3.6l-38.5-12.9l-13.9,7.7l-57.3-5.9l-4.4,3.7
	l-9.8-3.7l-51.7,27.1l-7.3-2.1l-87.6,45l-4.1,36.7l71.6,38.4l-1.8,9.2l36.3,17.6l-1.2,6.4l3.9,1.3l-1.8,1.5L1392.6,751l1.3-0.1
	l-1.9,15.3L1415.7,779.3z"/>
<path class="st0" d="M957.9,795.6v-35l3.9-4.7L961.5,542c0,0,102.2-5.3,121.2-10.1V526c0,0,108.1-13.6,148.7-29.9l8.9,6.2l17.2-6.2
	l18.1,11.3l24.6-9.2l91.3,49.3l-1.8,9.2l36.3,17.6l-1.2,6.4l2.1,2.8L1392.6,751l1.3-0.1l-4.3,22.2l-22.5,13.9l-0.6,3.6
	c0,0-112.3,88.6-385.2,110.4l-12.4-17.3L957.9,795.6z"/>
</svg>
