<?xml version="1.0" encoding="utf-8"?>
<!-- Generator: Adobe Illustrator 28.2.0, SVG Export Plug-In . SVG Version: 6.00 Build 0)  -->
<svg version="1.1" id="Layer_1" xmlns="http://www.w3.org/2000/svg" xmlns:xlink="http://www.w3.org/1999/xlink" x="0px" y="0px"
	 viewBox="0 0 1920 1080" style="enable-background:new 0 0 1920 1080;" xml:space="preserve">
<style type="text/css">
	.st0{opacity:0.49;fill:none;}
	.st1{opacity:0.24;fill:none;}
</style>
<image style="overflow:visible;" width="3840" height="2160" xlink:href="../situacioni afer.jpg"  transform="matrix(0.5 0 0 0.5 0 0)">
</image>
<polygon class="st0" points="1292.9,704.5 1289.8,706.3 1291.3,707.8 1289.8,710.3 1352.2,809.8 1414,822.9 1529.8,748.1 
	1524.7,739.2 1562,714.9 1564.2,718.3 1656.7,659.4 1679.6,607.8 1680.9,605.6 1565.1,554.5 1500.7,571.6 1493.3,572.7 
	1489.8,571.4 1484,582.3 1477.9,584.2 1474.4,586.6 1474.4,588.4 1434.2,614.2 1431.9,613.9 1427.9,616.6 1428.6,617.4 1391,642.9 
	1386.2,642.9 1382.4,645.8 1383.3,646.9 1381.4,649.6 1381.3,651.3 1348.3,671.1 1342.9,671.4 1339.6,673.9 1339.4,676.9 
	1299.1,704.2 "/>
<path class="st1" d="M1001.5,785.8h-3.7l-0.9,1.9l0.9,5.2l-9.9,113.2l3.4,32c0,0,105.2,6.4,152.9-3.9V927c0,0,125.2-17.9,215.3-72.4
	L1296,736.6l-39.3-3.9l-4.4,2.7l0.6,3l-30.7,14.7l-5.9-0.9c0,0-5,0.7-5.6,5.6l-45.8,15.9l-5.2-1.8l-5.2,1.5l0.9,2.7l-44.9,8.4
	l-2.7-1.2h-4l-2.7,3c0,0-27.7,3.6-50.4,3.6l-2.5-1.9l-3.7,0.1l-2.5,1.5l-37.9-0.7L1001.5,785.8z"/>
</svg>
