<?xml version="1.0" encoding="UTF-8" standalone="no"?>
<!-- Generator: Adobe Illustrator 27.3.1, SVG Export Plug-In . SVG Version: 6.00 Build 0)  -->

<svg
   version="1.1"
   id="Layer_1"
   x="0px"
   y="0px"
   viewBox="0 0 1190.6 841.9"
   style="enable-background:new 0 0 1190.6 841.9;"
   xml:space="preserve"
   sodipodi:docname="Palasa Prerjet 2.svg"
   inkscape:version="1.4.2 (f4327f4, 2025-05-13)"
   xmlns:inkscape="http://www.inkscape.org/namespaces/inkscape"
   xmlns:sodipodi="http://sodipodi.sourceforge.net/DTD/sodipodi-0.dtd"
   xmlns:xlink="http://www.w3.org/1999/xlink"
   xmlns="http://www.w3.org/2000/svg"
   xmlns:svg="http://www.w3.org/2000/svg"><defs
   id="defs9" /><sodipodi:namedview
   id="namedview9"
   pagecolor="#ffffff"
   bordercolor="#000000"
   borderopacity="0.25"
   inkscape:showpageshadow="2"
   inkscape:pageopacity="0.0"
   inkscape:pagecheckerboard="0"
   inkscape:deskcolor="#d1d1d1"
   inkscape:zoom="0.45908064"
   inkscape:cx="982.39822"
   inkscape:cy="602.2907"
   inkscape:window-width="1920"
   inkscape:window-height="991"
   inkscape:window-x="-9"
   inkscape:window-y="-9"
   inkscape:window-maximized="1"
   inkscape:current-layer="Layer_1" />
<style
   type="text/css"
   id="style1">
	.st0{display:none;}
	.st1{display:inline;}
	.st2{clip-path:url(#SVGID_00000175296887734326961520000016750285241185065606_);fill:#FEFAF2;}
	.st3{clip-path:url(#SVGID_00000145036381718591592020000000485085623767213238_);}
	.st4{clip-path:url(#SVGID_00000127760405578030748840000008009703875312189860_);}
	.st5{fill:none;}
</style>
<g
   class="st0"
   id="g2">
	<g
   class="st1"
   id="g1">
		<defs
   id="defs1">
			<rect
   id="SVGID_1_"
   width="1190.6"
   height="841.9" />
		</defs>
		<clipPath
   id="SVGID_00000093148843359728737100000009652445672914913710_">
			<use
   xlink:href="#SVGID_1_"
   style="overflow:visible;"
   id="use1" />
		</clipPath>
		
			<rect
   x="-8.8"
   y="-8.1"
   style="clip-path:url(#SVGID_00000093148843359728737100000009652445672914913710_);fill:#FEFAF2;"
   width="1199.1"
   height="859.4"
   clip-path="url(#SVGID_00000093148843359728737100000009652445672914913710_)"
   id="rect1" />
	</g>
</g>
<g
   id="g7">
	<g
   id="g6">
		<defs
   id="defs2">
			<path
   id="SVGID_00000144332505121180454180000005833370056436552086_"
   d="M 0,0 H 1190.6 V 841.90002 H 0 Z" />
		</defs>
		<clipPath
   id="SVGID_00000172427262183404315120000004149760524427145913_">
			<use
   xlink:href="#SVGID_00000144332505121180454180000005833370056436552086_"
   style="overflow:visible;"
   id="use2" />
		</clipPath>
		<g
   style="clip-path:url(#SVGID_00000172427262183404315120000004149760524427145913_);"
   clip-path="url(#SVGID_00000172427262183404315120000004149760524427145913_)"
   id="g5">
			<g
   id="g4">
				<defs
   id="defs3">
					<path
   id="SVGID_00000111901533922981122170000016547196311470509738_"
   d="M -1.4,-1.4 H 1191.9 V 842.89999 H -1.4 Z" />
				</defs>
				<clipPath
   id="SVGID_00000114057706309178782840000001630689735514665134_">
					<use
   xlink:href="#SVGID_00000111901533922981122170000016547196311470509738_"
   style="overflow:visible;"
   id="use3" />
				</clipPath>
				<g
   style="clip-path:url(#SVGID_00000114057706309178782840000001630689735514665134_);"
   clip-path="url(#SVGID_00000114057706309178782840000001630689735514665134_)"
   id="g3">
					
						<image
   style="overflow:visible;enable-background:new    ;"
   width="3083"
   height="2181"
   xlink:href="../../Desktop/8071F073.jpg"
   transform="matrix(0.387 0 0 0.387 -1.3959 -1.3209)"
   id="image3">
					</image>
				</g>
			</g>
		</g>
	</g>
</g>
<path
   class="st5"
   d="M274.3,141.7l60.4,63.6l18.2,6.9l23.6-3.6l11.3-4.2l17.6-2.7l6.2-2.9l7.3,0.9l8-0.7l1.6-2l2.1-10.2l7.4-5.6  l11.3-4.3h7.9l9.5,4.6l7,4.7l7,0.1l5.3-8.7l7.6-4.1l9.8-2.7v-9.6h5.3l6.7,2.2l11.8-1.1l44.9-10.4l70-15.3l8.4,1.3l38.2-10.9  l29.1-12.2c0,0,0.2-4.9,0-5.1s-4-10.9-4-10.9l-21.3-2.9l-46.7,2L634,88.6h-69.3l-33.3,5.3l-5.8,3.8h-50.2l-8.2,4.7h-26.4l-8.7,2.7  h-20.2v-5.6h-43.6l-4,4v2.9h-24h-2.9l-3,3v5.9h-8.6l-4.2,4.2v6h-47.1v16.2H274.3z"
   id="path7" />
<path
   class="st5"
   d="M740.3,71.4L729,77.3v11.3l-14.9,11.7l3.5,9.4v5.1l-15,6.3v12.1l15.7,10.9l20.4,2l58.3-8l79.1-15.3l70.4-2.7  v-9.9l-2.9-3.9c0,0,17.9,1.3,17.9,0s0-11.1,0-11.1l-12.4-13.9H894l-2.1-5.3l-12.3-4.6l-6.4-2.1h-129L740.3,71.4z"
   id="path8" />
<path
   id="polygon8"
   class="st5"
   style="fill:none"
   d="M 373.3,211.2 352.2,229 v 12.1 l -20.5,20.6 -25,21 -46.8,33.2 -11.3,40.9 v 11.8 l 9.1,16.8 -79.1,63.8 32,105.1 -40.9,10.3 -51.1,29.7 -15.2,47.6 67.6,-8.9 80.9,-14.7 118.7,-5.7 106.6,5.7 116,10.7 54.7,-12 -5.3,-16.9 -65.8,-29.3 -31.9,-8.2 -5.6,-14.8 -14.8,-18.9 8,-13.4 27.8,1.2 -3.2,-15.1 -30,-13.9 -18,-11 -70.2,-11 13.9,-20.1 3.8,-43.3 12.5,16 59.2,-93.7 27.6,-39.6 -4.9,-33.3 -66.2,-45.4 -4.2,-20 h -6.9 l -16.5,-9.4 h -7.8 l -11.3,4.2 -7.4,5.7 -2.1,10.2 -1.6,2 -8,0.7 -7.3,-0.9 -6.3,2.9 -17.5,2.6 -11.3,4.3 z" />
<path
   id="polygon9"
   class="st5"
   style="fill:none"
   d="m 612.8,483 -22.5,6.4 7.8,6.5 -14.7,5.1 9.8,10.9 -6.6,3.1 2,14.7 49.1,34 155.3,-23.4 33.8,18.7 105.3,-20 82.5,16 110.6,-17.8 65.4,12.2 v -83.5 l -96,-4.7 -131.6,10.5 -82.9,8 -19.3,-10.3 -85.6,7.2 -18,-3.8 -31.3,7.8 -29.1,1.3 -6.7,-4.5 z" />
</svg>
