<?xml version="1.0" encoding="UTF-8" standalone="no"?>
<!-- Generator: Adobe Illustrator 27.3.1, SVG Export Plug-In . SVG Version: 6.00 Build 0)  -->

<svg
   version="1.1"
   id="Layer_1"
   x="0px"
   y="0px"
   viewBox="0 0 1190.6 841.9"
   style="enable-background:new 0 0 1190.6 841.9;"
   xml:space="preserve"
   sodipodi:docname="Palasa Prerjet.svg"
   inkscape:version="1.4.2 (f4327f4, 2025-05-13)"
   xmlns:inkscape="http://www.inkscape.org/namespaces/inkscape"
   xmlns:sodipodi="http://sodipodi.sourceforge.net/DTD/sodipodi-0.dtd"
   xmlns:xlink="http://www.w3.org/1999/xlink"
   xmlns="http://www.w3.org/2000/svg"
   xmlns:svg="http://www.w3.org/2000/svg"><defs
   id="defs5" /><sodipodi:namedview
   id="namedview5"
   pagecolor="#ffffff"
   bordercolor="#000000"
   borderopacity="0.25"
   inkscape:showpageshadow="2"
   inkscape:pageopacity="0.0"
   inkscape:pagecheckerboard="0"
   inkscape:deskcolor="#d1d1d1"
   inkscape:zoom="0.45908064"
   inkscape:cx="975.86342"
   inkscape:cy="515.16004"
   inkscape:window-width="1920"
   inkscape:window-height="991"
   inkscape:window-x="-9"
   inkscape:window-y="-9"
   inkscape:window-maximized="1"
   inkscape:current-layer="Layer_1" />
<style
   type="text/css"
   id="style1">
	.st0{fill:none;}
	.st1{clip-path:url(#SVGID_00000040566293299755010610000011517446819443365540_);}
</style>
<g
   id="g4">
	<path
   id="rect1"
   class="st0"
   style="fill:none"
   d="M 1.2,0.2 H 1191.8 V 842.10002 H 1.2 Z" />
	<g
   id="g3">
		<g
   id="g2">
			<defs
   id="defs1">
				<path
   id="SVGID_1_"
   d="M 0,-1.2 H 1193 V 843.20002 H 0 Z" />
			</defs>
			<clipPath
   id="SVGID_00000157295760637002105240000016080924345911195813_">
				<use
   xlink:href="#SVGID_1_"
   style="overflow:visible;"
   id="use1" />
			</clipPath>
			<g
   style="clip-path:url(#SVGID_00000157295760637002105240000016080924345911195813_);"
   clip-path="url(#SVGID_00000157295760637002105240000016080924345911195813_)"
   id="g1">
				
					<image
   style="overflow:visible;enable-background:new    ;"
   width="2520"
   height="1783"
   xlink:href="../../Desktop/31286DD3.jpg"
   transform="matrix(0.4734 0 0 0.4734 -3.653157e-02 -1.162)"
   id="image1">
				</image>
			</g>
		</g>
	</g>
</g>
<path
   class="st0"
   d="M123.3,363.9c0,3.2,0,6.4,0.1,9.6c17.1,13.6,34.3,27.1,51.4,40.7c1.5-0.1,3-0.1,4.6-0.2l3.8,4.6l3.8-0.2  l3.2,0.2h1.1l3.6-2.1v6.9l2.7,4.4l3-0.5l0.6-0.6v-6l9.9-4.3l15.3-4.8l43.6-8.5l24.4-6.3l9.1-3.9v-5.1l-4.3-3.2v-9l13.6-1.9  l-24.4-15.3l13.3-1.4l-55.6-34.3l-99.7,10l-16.5,2.8l12.8,9.4l-9.3,0.8l-13.4,3.6l10.8,8.3v5.6L123.3,363.9z"
   id="path4" />
<path
   id="polygon4"
   class="st0"
   style="fill:none"
   d="m 334.6,357.3 v 9.5 l 68.5,41 h 1.6 l 6.9,5.9 13.6,-4 v -4.9 l 68.9,-9 35.3,-12 v -2.9 l -5.9,-3.4 v -8.9 l 15.1,-2.3 -30.5,-14.9 18.8,-2.1 -74.4,-36 -3.8,1 -88.1,10.3 -18,3.3 13.6,7.3 h -18.4 l -10.7,6.1 15.5,6.8 v 6.5 z" />
<path
   id="polygon5"
   class="st0"
   style="fill:none"
   d="m 557,351.6 v 10 l 86.9,42.8 124.4,-16.7 v -11.1 l -6.8,-3.3 v -9.6 l 16.2,-2.1 -18.8,-7.6 -14.1,-5.9 v -1.9 l 20.3,-2.4 -21.4,-8.1 -69.3,-28.1 -90.6,10.5 -20.5,3.4 6.2,3.1 1.5,0.7 -11.8,0.9 -11.4,-0.6 v 3 l 12.4,5.8 -9.1,1.2 25,12 v 2.5 z" />
<path
   class="st0"
   d="M802.2,315.4l20.6,7.3v2.4l-15.8,1.6l-17.3,3.7l25,9.6v4.3l-18.2,1.3v11.2l16.4,7.3l14.6,13.4l3.9,4.4l5.3,1.7  l14.5,1l10.4,5.2l5.7,2.2l6.2,3.8l9.9,7.3l3.1-3.4l3.7,1.6l0.4,2.2l2.4-1.2l3.1,2.7l4.5,0.5l5.9,8.4l1.3,3.2l3.4-0.9l3.6,0.9l1,1.6  h1.1l0.4-1.6l2.4-0.1l3,0.4l1.9-0.2l1.8,1.5l4-0.4l0.6-1.2l4.4-0.7l1.8-4.9l2-3.2l5.1-1.6l1.5-2.9l1.3,0.3l5.4,0.4l3.2,1.6l6.4,1.4  l3,0.4l3.3,1.7l0.4,1.6l3.1-0.1l2.2,0.4l3,0.7l1.9,1l1.7,2.4l2.7,0.6l3.6-0.4c0,0,2.6-1,2.8-1.3s1.5-1.5,1.5-1.5l4.4-0.3l1.3,0.8  l0.9,1.1l2.4-0.2c0,0,0.8-0.4,1.1-1s0.7-2.3,0.7-2.3l4-0.5l-0.4-2.7l1.6-2.4l2.8-2.1v-18.8l16.3-2.2l1.9,1.1v-11.8l-9.4-3.6V359  l17.7-2.3l-19.6-8.1l-16.3-6V341l21.3-2.7l-23.6-9.1l-85.2-28.4l-84.4,10.8L802.2,315.4z"
   id="path5" />
</svg>
