<?xml version="1.0" encoding="utf-8"?>
<!-- Generator: Adobe Illustrator 27.3.1, SVG Export Plug-In . SVG Version: 6.00 Build 0)  -->
<svg version="1.1" id="Layer_1" xmlns="http://www.w3.org/2000/svg" xmlns:xlink="http://www.w3.org/1999/xlink" x="0px" y="0px"
	 viewBox="0 0 1911.2 168.9" style="enable-background:new 0 0 1911.2 168.9;" xml:space="preserve">
<g>
	<path d="M9.4,47.2h36.9c23.1,0,38,11,38,30.5c0,18.7-13.8,26.2-22.2,28.1l22.6,44.5H66.6l-19.8-41.6H25.6v41.6H9.4V47.2z
		 M46.4,95.3c11,0,22.3-2.8,22.3-17.4c0-11.9-9.1-17.3-22.5-17.3H25.6v34.7H46.4z"/>
	<path d="M114.1,47.2h69V61h-52.8v26.9h52.8v13h-52.8v35.5h52.8v13.8h-69V47.2z"/>
	<path d="M297.9,142c-9.9,6-23.4,9.9-37.7,9.9c-31.7,0-50.8-19.8-50.8-52.3c0-31.7,19.6-53.7,50.6-53.7c13.7,0,26.2,2.8,36.1,7.5
		v15.7c-11.5-6.1-22.3-9.3-35.4-9.3c-22.9,0-34.7,17.4-34.7,40.2c0,22.6,11.8,38,34.3,38c8,0,16-1.3,22.5-4.2v-24.2h-29.4V96.7h44.5
		V142z"/>
	<path d="M332.3,47.2h16.2v103.1h-16.2V47.2z"/>
	<path d="M384.7,47.2H399l50.8,77.2V47.2h16v103.1H450L400.9,75v75.3h-16.2V47.2z"/>
	<path d="M529.2,47.2h16.5L583,150.3h-16l-10.5-27.8h-38.5l-9.7,27.8h-16.5L529.2,47.2z M552.6,109.9l-15.2-44l-15.9,44H552.6z"/>
	<path d="M658.7,47.2h36c26.7,0,41.3,12.1,41.3,34.7c0,22-15.6,34.6-41.3,34.6h-19.8v33.8h-16.2V47.2z M694.7,103.5
		c16.2,0,25.1-6.4,25.1-21.5c0-14.8-9.6-21.4-25.1-21.4h-19.8v42.9H694.7z"/>
	<path d="M784.7,47.2h16.5l37.2,103.1h-16l-10.5-27.8h-38.5l-9.7,27.8h-16.5L784.7,47.2z M808.1,109.9l-15.2-44l-15.9,44H808.1z"/>
	<path d="M864.1,47.2h16.2v89.3h49.5v13.8h-65.7V47.2z"/>
	<path d="M984.8,47.2h16.5l37.2,103.1h-16l-10.5-27.8h-38.5l-9.7,27.8h-16.5L984.8,47.2z M1008.2,109.9l-15.2-44l-15.9,44H1008.2z"
		/>
	<path d="M1058.5,123.3c8,8.5,20,14.6,33.2,14.6c14.1,0,21.4-6.6,21.4-15.9c0-9.4-9.3-13.8-17.6-16.3l-9.4-2.8
		c-16.3-5-27.2-11.2-27.2-28.9c0-19.5,17.1-28.1,36-28.1c16.2,0,27.3,5.8,31.1,9v17.4c-8-7.5-19.2-12.4-31.1-12.4
		c-9.4,0-19.6,3.8-19.6,13.7c0,7.9,6.3,12.3,16.3,15.4L1102,92c16.3,4.9,27.2,12.6,27.2,29.5c0,16.7-13.5,30.3-37.1,30.3
		c-17.8,0-29.5-7.2-33.6-10.8V123.3z"/>
	<path d="M1159.5,47.2h69V61h-52.8v26.9h52.8v13h-52.8v35.5h52.8v13.8h-69V47.2z M1164.8,27.4c0-5.7,4.6-10.4,10.2-10.4
		s10.4,4.7,10.4,10.4c0,5.8-4.7,10.1-10.4,10.1S1164.8,33.2,1164.8,27.4z M1202.4,27.4c0-5.7,4.4-10.4,10.2-10.4
		c5.5,0,10.2,4.7,10.2,10.4c0,5.8-4.7,10.1-10.2,10.1C1206.8,37.5,1202.4,33.2,1202.4,27.4z"/>
	<path d="M1311.6,47.2h36.9c23.1,0,38,11,38,30.5c0,18.7-13.8,26.2-22.2,28.1l22.6,44.5h-18.2l-19.8-41.6h-21.2v41.6h-16.2V47.2z
		 M1348.5,95.3c11,0,22.3-2.8,22.3-17.4c0-11.9-9.1-17.3-22.5-17.3h-20.6v34.7H1348.5z"/>
	<path d="M1416.3,47.2h69V61h-52.8v26.9h52.8v13h-52.8v35.5h52.8v13.8h-69V47.2z"/>
	<path d="M1512.4,123.3c8,8.5,20,14.6,33.2,14.6c14.1,0,21.4-6.6,21.4-15.9c0-9.4-9.3-13.8-17.6-16.3l-9.4-2.8
		c-16.3-5-27.2-11.2-27.2-28.9c0-19.5,17.1-28.1,36-28.1c16.2,0,27.3,5.8,31.1,9v17.4c-8-7.5-19.2-12.4-31.1-12.4
		c-9.4,0-19.6,3.8-19.6,13.7c0,7.9,6.3,12.3,16.3,15.4l10.5,3.1c16.3,4.9,27.2,12.6,27.2,29.5c0,16.7-13.5,30.3-37.1,30.3
		c-17.8,0-29.5-7.2-33.6-10.8V123.3z"/>
	<path d="M1654.6,45.8c30.5,0,46.4,24,46.4,51.5c0,30.6-16,54.5-46.2,54.5c-32.1,0-47.8-25-47.8-52.6
		C1607,68.6,1622.9,45.8,1654.6,45.8z M1654.6,138c21.4,0,29.5-18.5,29.5-40.7c0-20.3-9.4-37.7-29.5-37.7c-22.8,0-31,17.4-31,39.6
		C1623.7,119.5,1633.1,138,1654.6,138z"/>
	<path d="M1730.2,47.2h36.9c23.1,0,38,11,38,30.5c0,18.7-13.8,26.2-22.2,28.1l22.6,44.5h-18.2l-19.8-41.6h-21.2v41.6h-16.2V47.2z
		 M1767.1,95.3c11,0,22.3-2.8,22.3-17.4c0-11.9-9.1-17.3-22.5-17.3h-20.6v34.7H1767.1z"/>
	<path d="M1854.7,61H1824V47.2h77.8V61H1871v89.3h-16.3V61z"/>
</g>
</svg>
